# xmcd
#
# Track frame offsets: 
#        150
#        18424
#        40509
#        61109
#        81036
#        101205
#        117351
#        138770
#        158148
#        175557
#        193613
#        197756
#        216526
#        235779
#        253650
#        271505
#        289386
#        290724
#        291879
#        294712
#        297456
#
# Disc length: 3993 seconds
#
# Revision: 1
# Processed by: cddbd v1.5.2PL0 Copyright (c) Steve Scherf et al.
# Submitted via: ExactAudioCopy v1.0b1
#
DISCID=440f9715
DTITLE=Brad Paisley - Time Well Wasted
DYEAR=2005
DGENRE=Country
TTITLE0=The World
TTITLE1=Alcohol
TTITLE2=Waitin' On a Woman
TTITLE3=I'll Take You Back
TTITLE4=She's Everything
TTITLE5=You Need a Man Around Here
TTITLE6=Out In The Parking Lot ( Alan Jackson)
TTITLE7=Riinin' You
TTITLE8=Flowers
TTITLE9=Love Is Never-Ending
TTITLE10=The Uncloudy Day
TTITLE11=When I Get Where I'm Going (w Dolly Parton)
TTITLE12=Easy Money
TTITLE13=Time Warp
TTITLE14=Time Well Wasted
TTITLE15=Cornography (James Burton and The Kung Pao Buckaroos)
TTITLE16=Out Take 1
TTITLE17=Out Take 2
TTITLE18=Out Take 3
TTITLE19=Out Take 4
TTITLE20=Shatner Says Goodbye
EXTD=
EXTT0=
EXTT1=
EXTT2=
EXTT3=
EXTT4=
EXTT5=
EXTT6=
EXTT7=
EXTT8=
EXTT9=
EXTT10=
EXTT11=
EXTT12=
EXTT13=
EXTT14=
EXTT15=
EXTT16=
EXTT17=
EXTT18=
EXTT19=
EXTT20=
PLAYORDER=
